<svg width="27" height="26" viewBox="0 0 27 26" fill="none" xmlns="http://www.w3.org/2000/svg">
<path fill-rule="evenodd" clip-rule="evenodd" d="M17.9834 1.84294C16.4809 1.36739 14.8947 1.21484 13.329 1.3953C12.9685 1.43685 12.6109 1.49586 12.2575 1.57189C18.8309 1.67491 24.1288 7.02956 24.1288 13.6211C24.1288 16.6167 23.0346 19.3569 21.2237 21.4647C21.4994 21.2623 21.7663 21.0469 22.0232 20.8191C23.2019 19.7742 24.1458 18.492 24.7929 17.0568C25.44 15.6216 25.7757 14.0659 25.7779 12.4919C25.78 10.9179 25.4487 9.36128 24.8055 7.9243C24.1624 6.48731 23.222 5.20251 22.0462 4.15437C20.8704 3.10623 19.4858 2.31848 17.9834 1.84294ZM8.4394 2.11624L8.44321 2.12266C3.54976 3.65876 0 8.22555 0 13.6211C0 20.277 5.40192 25.6717 12.0644 25.6717C14.3249 25.6717 16.4404 25.0507 18.2489 23.9701C19.8638 23.4599 21.3532 22.6158 22.6202 21.4926C23.8939 20.3635 24.914 18.9778 25.6134 17.4268C26.3127 15.8757 26.6755 14.1943 26.6779 12.4932C26.6802 10.792 26.3221 9.10963 25.627 7.55663C24.9319 6.00363 23.9157 4.61519 22.6451 3.48255C21.3745 2.34991 19.8783 1.49872 18.2549 0.984891C16.6315 0.471064 14.9177 0.306231 13.226 0.501217C11.5343 0.696203 9.90299 1.2466 8.4394 2.11624ZM0.9 13.6211C0.9 7.46321 5.89797 2.47038 12.0644 2.47038C18.2308 2.47038 23.2288 7.46321 23.2288 13.6211C23.2288 19.7789 18.2308 24.7717 12.0644 24.7717C5.89797 24.7717 0.9 19.7789 0.9 13.6211ZM10.0165 5.58812C10.6715 5.42205 11.3576 5.3338 12.0644 5.3338C16.6476 5.3338 20.3621 9.04466 20.3621 13.6211C20.3621 16.4953 18.897 19.0281 16.6717 20.5146C14.791 20.9892 12.8024 20.7912 11.0516 19.9535C9.27772 19.1048 7.8633 17.6547 7.06019 15.8617C6.25708 14.0687 6.11738 12.0492 6.66597 10.163C7.21015 8.29188 8.39658 6.67237 10.0165 5.58812ZM7.45882 6.72652C5.23262 8.21289 3.76678 10.7462 3.76678 13.6211C3.76678 18.1976 7.48127 21.9084 12.0644 21.9084C12.7734 21.9084 13.4617 21.8196 14.1186 21.6526C12.9288 21.5853 11.7543 21.2874 10.6631 20.7653C8.6971 19.8247 7.12917 18.2174 6.23882 16.2296C5.34846 14.2418 5.19357 12.0029 5.80177 9.91163C6.1418 8.74249 6.70798 7.66203 7.45882 6.72652ZM12.0644 4.4338C6.98521 4.4338 2.86678 8.5466 2.86678 13.6211C2.86678 18.6956 6.98521 22.8084 12.0644 22.8084C17.1437 22.8084 21.2621 18.6956 21.2621 13.6211C21.2621 8.5466 17.1437 4.4338 12.0644 4.4338Z" fill="black"/>
</svg>
